<?xml version="1.0" encoding="utf-8"?>
<!-- Generator: Adobe Illustrator 24.3.0, SVG Export Plug-In . SVG Version: 6.00 Build 0)  -->
<svg version="1.1" xmlns="http://www.w3.org/2000/svg" xmlns:xlink="http://www.w3.org/1999/xlink" x="0px" y="0px"
	 viewBox="0 0 375.6 185.9" style="enable-background:new 0 0 375.6 185.9;" xml:space="preserve">
<style type="text/css">
	.st0{fill:#FFFFFF;}
	.st1{fill:#CCCCCC;}
	.st2{fill:#A6A6A6;}
	.st3{display:none;}
	.st4{display:inline;}
	.st5{fill:#EC1C24;stroke:#EA1F27;stroke-width:0.3212;stroke-miterlimit:10;stroke-dasharray:2.1416;}
	.st6{display:inline;fill:#EC1C24;stroke:#EA1F27;stroke-width:0.3212;stroke-miterlimit:10;stroke-dasharray:2.1416;}
	.st7{display:inline;fill:#EC1C24;stroke:#EA1F27;stroke-width:0.3;stroke-miterlimit:10;stroke-dasharray:2;}
	.st8{display:inline;fill:#EC1C24;stroke:#EA1F27;stroke-width:0.3;stroke-miterlimit:10;stroke-dasharray:1.9999;}
	.st9{fill:#EC1C24;}
	.st10{fill:none;stroke:#EA1F27;stroke-width:0.3;stroke-miterlimit:10;}
	.st11{fill:#EA1F27;}
	.st12{display:inline;fill:#EC1C24;}
	.st13{display:inline;opacity:0.15;fill:#EC1C24;}
	.st14{display:inline;fill:#EC1C24;stroke:#EA1F27;stroke-width:0.3207;stroke-miterlimit:10;stroke-dasharray:2.1379;}
	.st15{display:inline;fill:#EC1C24;stroke:#EA1F27;stroke-width:0.3207;stroke-miterlimit:10;stroke-dasharray:2.1378;}
</style>
<g id="Logo">
	<path class="st0" d="M152.7,97.2V69.8h11.5v27.8c0,4.5,2.3,7.6,8,7.6c5.3,0,7.9-3.2,7.9-7.8V69.8h11.5v27.4
		c0,10.7-6.4,17.2-19.4,17.2C159.2,114.4,152.7,108.1,152.7,97.2z"/>
	<path class="st0" d="M196.9,80.3h10.2v4.5h0.2c2.5-3.6,5.7-5.5,10.3-5.5c7.3,0,11.6,5.2,11.6,12.6v21.6h-10.6V94.1
		c0-3.5-1.8-5.9-5.2-5.9c-3.5,0-5.8,2.9-5.8,7v18.4h-10.6V80.3z"/>
	<path class="st0" d="M234.6,67.2h10.6v8.6h-10.6V67.2z M234.6,80.3h10.6v33.3h-10.6V80.3z"/>
	<path class="st0" d="M253.5,104.8V88.9h-4.4v-8.6h4.4V69.8h10.3v10.5h6v8.6h-6v13.6c0,2.6,1.4,3.2,3.7,3.2c0.9,0,1.9-0.1,2.3-0.1
		v7.7c-0.9,0.3-2.9,0.5-5.8,0.5C257.9,114,253.5,112,253.5,104.8z"/>
	<path class="st0" d="M276.4,116.3h3.6c3.1,0,4.4-1.2,4.4-3.5c0-1.4-0.6-3.4-2-6.9l-9.8-25.6h11.2l4.5,14.2c1,3.2,2.1,7.7,2.1,7.7
		h0.1c0,0,0.9-4.4,1.9-7.7l4.4-14.2h10.6l-11.5,33.7c-2.7,7.8-5.8,10.5-12.5,10.5h-6.9V116.3z"/>
	<path class="st1" d="M130.2,112.2V67.2l-39-22.5v17.3l15.3,8.8c0.6,0.3,0.6,1.2,0,1.5c0,0-18.2,10.5-18.2,10.5
		c-0.5,0.3-1.2,0.3-1.7,0L68.4,72.2c-0.6-0.3-0.6-1.2,0-1.5l15.3-8.8l0-17.3l-39,22.5v45.1l0-0.2v0.2l15-8.6l0-17.7
		c0-0.6,0.7-1.1,1.3-0.7l18.2,10.5c0.5,0.3,0.9,0.9,0.9,1.5l0,21c0,0.6-0.7,1.1-1.3,0.7l-15.3-8.8l-15,8.6l39,22.5l39-22.5l-15-8.6
		l-15.3,8.8c-0.5,0.3-1.3-0.1-1.3-0.7c0,0,0-21,0-21c0-0.6,0.3-1.2,0.9-1.5l18.2-10.5c0.5-0.3,1.3,0.1,1.3,0.7v17.7L130.2,112.2z"/>
	<path class="st2" d="M87.4,141.3l39-22.5l-15-8.6l-15.3,8.8c-0.5,0.3-1.3-0.1-1.3-0.7c0,0,0-21,0-21c0-0.6,0.3-1.2,0.9-1.5
		l18.2-10.5c0.5-0.3,1.3,0.1,1.3,0.7c0,0,0,17.7,0,17.7l15,8.6V67.2L87.4,91.9L87.4,141.3z"/>
	<path class="st0" d="M91.1,44.6v17.3l15.3,8.8c0.6,0.3,0.6,1.2,0,1.5c0,0-18.2,10.5-18.2,10.5c-0.5,0.3-1.2,0.3-1.7,0L68.4,72.2
		c-0.6-0.3-0.6-1.2,0-1.5c0,0,15.3-8.8,15.3-8.8l0-17.3l-39,22.5l42.8,24.7l42.8-24.7L91.1,44.6z"/>
	<path class="st1" d="M78.6,118.9l-15.3-8.8l-15,8.6l39,22.5l0-49.4L44.6,67.2v45.1l0-0.2v0.2l15-8.6l0-17.7c0-0.6,0.7-1.1,1.3-0.7
		c0,0,18.2,10.5,18.2,10.5c0.5,0.3,0.9,0.9,0.9,1.5l0,21C79.9,118.8,79.2,119.2,78.6,118.9z"/>
	<g>
		<path class="st0" d="M330.1,85.5c-0.4-1-1-1.9-1.8-2.7c-0.8-0.8-1.7-1.4-2.7-1.8c-1-0.4-2.1-0.7-3.3-0.7s-2.3,0.2-3.3,0.7
			c-1,0.4-1.9,1-2.7,1.8s-1.4,1.7-1.8,2.7c-0.4,1-0.7,2.1-0.7,3.3c0,1.2,0.2,2.3,0.7,3.3c0.4,1,1,1.9,1.8,2.7s1.7,1.4,2.7,1.8
			c1,0.4,2.1,0.7,3.3,0.7s2.3-0.2,3.3-0.7c1-0.4,1.9-1,2.7-1.8c0.8-0.8,1.4-1.7,1.8-2.7c0.4-1,0.7-2.1,0.7-3.3
			C330.7,87.6,330.5,86.5,330.1,85.5z M327.8,92.1c-0.6,1-1.4,1.8-2.3,2.3c-1,0.6-2.1,0.9-3.2,0.9c-1.2,0-2.3-0.3-3.2-0.9
			c-1-0.6-1.8-1.4-2.3-2.3c-0.6-1-0.9-2.1-0.9-3.2c0-1.2,0.3-2.3,0.9-3.2c0.6-1,1.4-1.8,2.3-2.3c1-0.6,2.1-0.9,3.2-0.9
			c1.2,0,2.3,0.3,3.2,0.9c1,0.6,1.8,1.4,2.3,2.3c0.6,1,0.9,2.1,0.9,3.2C328.7,90,328.4,91.1,327.8,92.1z"/>
		<path class="st0" d="M325.2,88.8c0.3-0.4,0.4-0.9,0.4-1.5c0-0.6-0.1-1-0.4-1.4c-0.3-0.4-0.6-0.6-1-0.8c-0.4-0.2-0.7-0.3-1-0.3h-4
			v7.8h1.7V90h1.7l1.4,2.7h1.9l-1.6-3C324.7,89.4,325,89.1,325.2,88.8z M321,86.1h1.6c0.2,0,0.4,0.1,0.7,0.3c0.3,0.2,0.4,0.5,0.4,1
			c0,0.5-0.1,0.8-0.4,1c-0.3,0.2-0.5,0.3-0.8,0.3H321V86.1z"/>
	</g>
</g>
<g id="Guides" class="st3">
	<g class="st4">
		<line class="st5" x1="0" y1="67.2" x2="375.5" y2="67.2"/>
	</g>
	<line class="st6" x1="0" y1="113.6" x2="375.4" y2="113.6"/>
	<line class="st7" x1="44.6" y1="185.9" x2="44.6" y2="0"/>
	<line class="st7" x1="115.2" y1="185.9" x2="115.2" y2="0"/>
	<line class="st8" x1="196.9" y1="185.9" x2="196.9" y2="0"/>
	<line class="st8" x1="229.1" y1="185.9" x2="229.1" y2="0"/>
	<line class="st8" x1="234.6" y1="185.9" x2="234.6" y2="0"/>
	<line class="st7" x1="307.3" y1="185.9" x2="307.3" y2="0"/>
	<line class="st7" x1="313.8" y1="0" x2="313.8" y2="185.9"/>
	<line class="st7" x1="330.7" y1="0" x2="330.7" y2="185.9"/>
	<g class="st4">
		<line class="st9" x1="38.6" y1="46.2" x2="38.6" y2="138.6"/>
		<g>
			<line class="st10" x1="38.6" y1="46.3" x2="38.6" y2="138.4"/>
			<g>
				<rect x="37.7" y="46.2" class="st11" width="2" height="0.3"/>
			</g>
			<g>
				<rect x="37.7" y="138.3" class="st11" width="2" height="0.3"/>
			</g>
		</g>
	</g>
	<path class="st12" d="M308.4,164.4l0.1,0c0.1,0,0.1,0,0.2,0c0,0,0.1-0.1,0.1-0.1l0.5-1.6c0,0,0,0,0-0.1c0,0,0,0,0-0.1
		c0,0,0-0.1,0-0.1c0,0-0.1,0-0.1,0l-0.2,0v0l0,0c0,0,0.1,0,0.2,0c0.1,0,0.2,0,0.3-0.1l0.1,0l0,0l0,0c0,0,0,0,0,0c0,0,0,0,0,0l-0.5,2
		c0,0,0,0,0,0c0,0,0,0,0,0c0,0,0,0.1,0.1,0.1s0.1,0,0.2,0v0L308.4,164.4L308.4,164.4z"/>
	<path class="st12" d="M310.7,162.3h0.2l-0.8,2.2h-0.2L310.7,162.3z"/>
	<path class="st12" d="M311,164.4c-0.1,0-0.2-0.1-0.2-0.2c0,0,0-0.1,0-0.1c0,0,0.1,0,0.1,0c0,0,0.1,0,0.2,0.1
		c0.1,0.1,0.2,0.1,0.2,0.1c0.1,0,0.3-0.1,0.4-0.2c0.1-0.1,0.2-0.3,0.2-0.5c0-0.2-0.1-0.4-0.2-0.5c-0.1-0.1-0.3-0.1-0.5-0.2V163
		l0.3-0.7h0.9l-0.1,0.2h-0.8l-0.1,0.3c0.2,0,0.4,0.1,0.6,0.2c0.1,0.1,0.2,0.3,0.2,0.5c0,0.2-0.1,0.5-0.3,0.7
		c-0.2,0.2-0.4,0.3-0.7,0.3C311.1,164.5,311.1,164.5,311,164.4z"/>
	<path class="st12" d="M309.6,166.3c-0.1,0.1-0.2,0.2-0.2,0.3c-0.1,0.2-0.2,0.4-0.3,0.6c-0.1,0.2-0.1,0.4-0.1,0.6c0,0.2,0,0.3,0,0.4
		c0,0.2,0,0.3,0,0.4c0,0.1,0.1,0.3,0.1,0.5l-0.1,0c-0.1-0.2-0.2-0.4-0.3-0.6c-0.1-0.2-0.1-0.4-0.1-0.6c0-0.3,0-0.5,0.1-0.7
		C308.9,166.8,309.2,166.5,309.6,166.3L309.6,166.3z"/>
	<path class="st12" d="M309.6,168.9C309.6,168.9,309.6,168.8,309.6,168.9c0.1,0,0.1,0,0.2,0c0,0,0,0,0.1,0l0,0c0,0,0,0,0,0s0,0,0,0
		c0.1,0,0.1-0.1,0.3-0.2s0.2-0.2,0.2-0.3c0-0.1,0-0.2-0.1-0.4c0-0.2-0.1-0.3-0.1-0.5c-0.1-0.2-0.1-0.3-0.1-0.4
		c0-0.1-0.1-0.1-0.2-0.1c0,0,0,0,0,0s0,0-0.1,0V167l0.4-0.1l0,0c0,0,0.1,0.1,0.2,0.4c0.1,0.2,0.1,0.4,0.1,0.5l0.1,0.4
		c0.1-0.2,0.2-0.3,0.2-0.4c0.1-0.2,0.2-0.3,0.2-0.4c0,0,0,0,0-0.1c0,0,0,0,0,0l0,0c0,0,0,0-0.1,0c0,0,0-0.1,0-0.1c0,0,0-0.1,0-0.1
		s0.1,0,0.1,0c0.1,0,0.1,0,0.1,0c0,0,0.1,0.1,0.1,0.2c0,0.1-0.1,0.3-0.2,0.6c-0.1,0.2-0.2,0.4-0.3,0.6c-0.2,0.2-0.3,0.4-0.4,0.5
		c-0.2,0.2-0.3,0.3-0.4,0.3c0,0-0.1,0-0.1,0S309.5,169,309.6,168.9C309.5,168.9,309.5,168.9,309.6,168.9z"/>
	<path class="st12" d="M311.1,169c0.1-0.1,0.2-0.2,0.3-0.3c0.1-0.2,0.2-0.3,0.3-0.6c0.1-0.2,0.1-0.4,0.1-0.5s0-0.3,0-0.5
		c0-0.2,0-0.4,0-0.5c0-0.1-0.1-0.3-0.1-0.4l0.1,0c0.1,0.2,0.2,0.4,0.2,0.6c0.1,0.2,0.1,0.4,0.1,0.6c0,0.2,0,0.5-0.1,0.6
		C311.8,168.4,311.6,168.7,311.1,169L311.1,169z"/>
	<path class="st12" d="M229.7,164.4l0.1,0c0.1,0,0.1,0,0.2,0c0,0,0.1-0.1,0.1-0.1l0.5-1.6c0,0,0,0,0-0.1c0,0,0,0,0-0.1
		c0,0,0-0.1,0-0.1c0,0-0.1,0-0.1,0l-0.2,0v0l0,0c0,0,0.1,0,0.2,0c0.1,0,0.2,0,0.3-0.1l0.1,0l0,0l0,0c0,0,0,0,0,0c0,0,0,0,0,0l-0.5,2
		c0,0,0,0,0,0c0,0,0,0,0,0c0,0,0,0.1,0.1,0.1s0.1,0,0.2,0v0L229.7,164.4L229.7,164.4z"/>
	<path class="st12" d="M232,162.3h0.2l-0.8,2.2h-0.2L232,162.3z"/>
	<path class="st12" d="M230.9,166.3c-0.1,0.1-0.2,0.2-0.2,0.3c-0.1,0.2-0.2,0.4-0.3,0.6c-0.1,0.2-0.1,0.4-0.1,0.6c0,0.2,0,0.3,0,0.4
		c0,0.2,0,0.3,0,0.4c0,0.1,0.1,0.3,0.1,0.5l-0.1,0c-0.1-0.2-0.2-0.4-0.3-0.6c-0.1-0.2-0.1-0.4-0.1-0.6c0-0.3,0-0.5,0.1-0.7
		C230.2,166.8,230.5,166.5,230.9,166.3L230.9,166.3z"/>
	<path class="st12" d="M230.9,168.9C230.9,168.9,230.9,168.8,230.9,168.9c0.1,0,0.1,0,0.2,0c0,0,0,0,0.1,0l0,0c0,0,0,0,0,0s0,0,0,0
		c0.1,0,0.1-0.1,0.3-0.2s0.2-0.2,0.2-0.3c0-0.1,0-0.2-0.1-0.4c0-0.2-0.1-0.3-0.1-0.5c-0.1-0.2-0.1-0.3-0.1-0.4
		c0-0.1-0.1-0.1-0.2-0.1c0,0,0,0,0,0s0,0-0.1,0V167l0.4-0.1l0,0c0,0,0.1,0.1,0.2,0.4c0.1,0.2,0.1,0.4,0.1,0.5l0.1,0.4
		c0.1-0.2,0.2-0.3,0.2-0.4c0.1-0.2,0.2-0.3,0.2-0.4c0,0,0,0,0-0.1c0,0,0,0,0,0l0,0c0,0,0,0-0.1,0c0,0,0-0.1,0-0.1c0,0,0-0.1,0-0.1
		s0.1,0,0.1,0c0.1,0,0.1,0,0.1,0c0,0,0.1,0.1,0.1,0.2c0,0.1-0.1,0.3-0.2,0.6c-0.1,0.2-0.2,0.4-0.3,0.6c-0.2,0.2-0.3,0.4-0.4,0.5
		c-0.2,0.2-0.3,0.3-0.4,0.3c0,0-0.1,0-0.1,0S230.8,169,230.9,168.9C230.8,168.9,230.9,168.9,230.9,168.9z"/>
	<path class="st12" d="M232.5,169c0.1-0.1,0.2-0.2,0.3-0.3c0.1-0.2,0.2-0.3,0.3-0.6c0.1-0.2,0.1-0.4,0.1-0.5s0-0.3,0-0.5
		c0-0.2,0-0.4,0-0.5c0-0.1-0.1-0.3-0.1-0.4l0.1,0c0.1,0.2,0.2,0.4,0.2,0.6c0.1,0.2,0.1,0.4,0.1,0.6c0,0.2,0,0.5-0.1,0.6
		C233.1,168.4,232.9,168.7,232.5,169L232.5,169z"/>
	<path class="st12" d="M121.5,162.3c-0.1,0.1-0.2,0.2-0.2,0.3c-0.1,0.2-0.2,0.4-0.3,0.6c-0.1,0.2-0.1,0.4-0.1,0.6c0,0.2,0,0.3,0,0.4
		c0,0.2,0,0.3,0,0.4c0,0.1,0.1,0.3,0.1,0.5l-0.1,0c-0.1-0.2-0.2-0.4-0.3-0.6c-0.1-0.2-0.1-0.4-0.1-0.6c0-0.3,0-0.5,0.1-0.7
		C120.8,162.8,121.1,162.5,121.5,162.3L121.5,162.3z"/>
	<path class="st12" d="M121.5,164.2C121.5,164.2,121.5,164.2,121.5,164.2c0.1,0,0.1,0,0.1,0c0,0,0,0,0,0l0.1,0c0,0,0,0,0,0s0,0,0,0
		c0,0,0,0,0.1,0s0.1-0.1,0.1-0.1c0-0.1,0.1-0.2,0.3-0.4c0,0,0-0.1,0-0.2c0-0.1,0-0.2-0.1-0.3s0-0.1-0.1-0.2c0,0,0,0-0.1,0
		c0,0,0,0-0.1,0c0,0-0.1,0-0.1,0l0,0l0.2-0.1c0,0,0.1,0,0.1,0c0,0,0.1,0,0.1,0c0,0,0.1,0,0.1,0c0,0,0.1,0.1,0.1,0.3l0,0.2
		c0.1-0.1,0.2-0.3,0.2-0.3c0-0.1,0.1-0.1,0.1-0.1c0,0,0.1,0,0.1,0c0,0,0.1,0,0.1,0c0,0,0.1,0.1,0.1,0.1c0,0,0,0.1,0,0.1s0,0-0.1,0
		c0,0,0,0,0,0c0,0,0,0,0,0l0,0c0,0,0,0,0,0c0,0,0,0,0,0c0,0-0.1,0.1-0.2,0.2s-0.1,0.2-0.1,0.2c0,0,0,0.1,0,0.2c0,0.1,0,0.2,0.1,0.3
		c0,0.1,0,0.2,0.1,0.2c0,0.1,0.1,0.1,0.1,0.1c0,0,0.1,0,0.1,0s0.1-0.1,0.1-0.2l0,0c0,0.1-0.1,0.2-0.1,0.2c-0.1,0.1-0.2,0.2-0.3,0.2
		c-0.1,0-0.1,0-0.1-0.1c0,0,0-0.1-0.1-0.1l-0.1-0.4l-0.3,0.4c-0.1,0.1-0.1,0.1-0.2,0.2c0,0-0.1,0-0.1,0c-0.1,0-0.1,0-0.1-0.1
		C121.4,164.4,121.4,164.4,121.5,164.2C121.4,164.3,121.4,164.3,121.5,164.2z"/>
	<path class="st12" d="M123.1,165c0.1-0.1,0.2-0.2,0.3-0.3c0.1-0.2,0.2-0.3,0.3-0.6c0.1-0.2,0.1-0.4,0.1-0.5s0-0.3,0-0.5
		c0-0.2,0-0.4,0-0.5c0-0.1-0.1-0.3-0.1-0.4l0.1,0c0.1,0.2,0.2,0.4,0.2,0.6c0.1,0.2,0.1,0.4,0.1,0.6c0,0.2,0,0.5-0.1,0.6
		C123.7,164.4,123.5,164.7,123.1,165L123.1,165z"/>
	<path class="st12" d="M138.2,164.4l0.1,0c0.1,0,0.1,0,0.2,0c0,0,0.1-0.1,0.1-0.1l0.5-1.6c0,0,0,0,0-0.1c0,0,0,0,0-0.1
		c0,0,0-0.1,0-0.1c0,0-0.1,0-0.1,0l-0.2,0v0l0,0c0,0,0.1,0,0.2,0c0.1,0,0.2,0,0.3-0.1l0.1,0l0,0l0,0c0,0,0,0,0,0c0,0,0,0,0,0l-0.5,2
		c0,0,0,0,0,0c0,0,0,0,0,0c0,0,0,0.1,0.1,0.1s0.1,0,0.2,0v0L138.2,164.4L138.2,164.4z"/>
	<path class="st12" d="M140.1,164.4c0,0-0.1-0.1-0.1-0.1c0-0.1,0-0.1,0.1-0.1s0.1-0.1,0.1-0.1s0.1,0,0.1,0.1s0.1,0.1,0.1,0.1
		c0,0.1,0,0.1-0.1,0.1c0,0-0.1,0.1-0.1,0.1S140.2,164.5,140.1,164.4z"/>
	<path class="st12" d="M140.7,164.4c-0.1,0-0.2-0.1-0.2-0.2c0,0,0-0.1,0-0.1c0,0,0.1,0,0.1,0c0,0,0.1,0,0.2,0.1
		c0.1,0.1,0.2,0.1,0.2,0.1c0.1,0,0.3-0.1,0.4-0.2c0.1-0.1,0.2-0.3,0.2-0.5c0-0.2-0.1-0.4-0.2-0.5c-0.1-0.1-0.3-0.1-0.5-0.2V163
		l0.3-0.7h0.9l-0.1,0.2h-0.8l-0.1,0.3c0.2,0,0.4,0.1,0.6,0.2c0.1,0.1,0.2,0.3,0.2,0.5c0,0.2-0.1,0.5-0.3,0.7
		c-0.2,0.2-0.4,0.3-0.7,0.3C140.9,164.5,140.8,164.5,140.7,164.4z"/>
	<path class="st12" d="M144.1,162.3c-0.1,0.1-0.2,0.2-0.2,0.3c-0.1,0.2-0.2,0.4-0.3,0.6c-0.1,0.2-0.1,0.4-0.1,0.6c0,0.2,0,0.3,0,0.4
		c0,0.2,0,0.3,0,0.4c0,0.1,0.1,0.3,0.1,0.5l-0.1,0c-0.1-0.2-0.2-0.4-0.3-0.6c-0.1-0.2-0.1-0.4-0.1-0.6c0-0.3,0-0.5,0.1-0.7
		C143.4,162.8,143.7,162.5,144.1,162.3L144.1,162.3z"/>
	<path class="st12" d="M144.1,164.2C144.1,164.2,144.1,164.2,144.1,164.2c0.1,0,0.1,0,0.1,0c0,0,0,0,0,0l0.1,0c0,0,0,0,0,0s0,0,0,0
		c0,0,0,0,0.1,0c0,0,0.1-0.1,0.1-0.1c0-0.1,0.1-0.2,0.3-0.4c0,0,0-0.1,0-0.2c0-0.1,0-0.2-0.1-0.3s0-0.1-0.1-0.2c0,0,0,0-0.1,0
		c0,0,0,0-0.1,0c0,0-0.1,0-0.1,0l0,0l0.2-0.1c0,0,0.1,0,0.1,0c0,0,0.1,0,0.1,0c0,0,0.1,0,0.1,0c0,0,0.1,0.1,0.1,0.3l0,0.2
		c0.1-0.1,0.2-0.3,0.2-0.3c0-0.1,0.1-0.1,0.1-0.1c0,0,0.1,0,0.1,0c0,0,0.1,0,0.1,0c0,0,0.1,0.1,0.1,0.1c0,0,0,0.1,0,0.1s0,0-0.1,0
		c0,0,0,0,0,0c0,0,0,0,0,0l0,0c0,0,0,0,0,0c0,0,0,0,0,0c0,0-0.1,0.1-0.2,0.2s-0.1,0.2-0.1,0.2c0,0,0,0.1,0,0.2c0,0.1,0,0.2,0.1,0.3
		c0,0.1,0,0.2,0.1,0.2c0,0.1,0.1,0.1,0.1,0.1c0,0,0.1,0,0.1,0s0.1-0.1,0.1-0.2l0,0c0,0.1-0.1,0.2-0.1,0.2c-0.1,0.1-0.2,0.2-0.3,0.2
		c-0.1,0-0.1,0-0.1-0.1c0,0,0-0.1-0.1-0.1l-0.1-0.4l-0.3,0.4c-0.1,0.1-0.1,0.1-0.2,0.2c0,0-0.1,0-0.1,0c-0.1,0-0.1,0-0.1-0.1
		C144.1,164.4,144,164.4,144.1,164.2C144,164.3,144.1,164.3,144.1,164.2z"/>
	<path class="st12" d="M145.7,165c0.1-0.1,0.2-0.2,0.3-0.3c0.1-0.2,0.2-0.3,0.3-0.6c0.1-0.2,0.1-0.4,0.1-0.5s0-0.3,0-0.5
		c0-0.2,0-0.4,0-0.5c0-0.1-0.1-0.3-0.1-0.4l0.1,0c0.1,0.2,0.2,0.4,0.2,0.6c0.1,0.2,0.1,0.4,0.1,0.6c0,0.2,0,0.5-0.1,0.6
		C146.3,164.4,146.1,164.7,145.7,165L145.7,165z"/>
	<path class="st12" d="M212.2,162.3c-0.1,0.1-0.2,0.2-0.2,0.3c-0.1,0.2-0.2,0.4-0.3,0.6c-0.1,0.2-0.1,0.4-0.1,0.6c0,0.2,0,0.3,0,0.4
		c0,0.2,0,0.3,0,0.4c0,0.1,0.1,0.3,0.1,0.5l-0.1,0c-0.1-0.2-0.2-0.4-0.3-0.6c-0.1-0.2-0.1-0.4-0.1-0.6c0-0.3,0-0.5,0.1-0.7
		C211.5,162.8,211.8,162.5,212.2,162.3L212.2,162.3z"/>
	<path class="st12" d="M212.2,164.9C212.2,164.9,212.2,164.9,212.2,164.9c0.1,0,0.1,0,0.2,0c0,0,0,0,0.1,0l0,0c0,0,0,0,0,0s0,0,0,0
		c0.1,0,0.1-0.1,0.3-0.2s0.2-0.2,0.2-0.3c0-0.1,0-0.2-0.1-0.4c0-0.2-0.1-0.3-0.1-0.5c-0.1-0.2-0.1-0.3-0.1-0.4
		c0-0.1-0.1-0.1-0.2-0.1c0,0,0,0,0,0s0,0-0.1,0v-0.1l0.4-0.1l0,0c0,0,0.1,0.1,0.2,0.4c0.1,0.2,0.1,0.4,0.1,0.5l0.1,0.4
		c0.1-0.2,0.2-0.3,0.2-0.4c0.1-0.2,0.2-0.3,0.2-0.4c0,0,0,0,0-0.1c0,0,0,0,0,0l0,0c0,0,0,0-0.1,0c0,0,0-0.1,0-0.1c0,0,0-0.1,0-0.1
		s0.1,0,0.1,0c0.1,0,0.1,0,0.1,0c0,0,0.1,0.1,0.1,0.2c0,0.1-0.1,0.3-0.2,0.6c-0.1,0.2-0.2,0.4-0.3,0.6c-0.2,0.2-0.3,0.4-0.4,0.5
		c-0.2,0.2-0.3,0.3-0.4,0.3c0,0-0.1,0-0.1,0S212.2,165,212.2,164.9C212.2,164.9,212.2,164.9,212.2,164.9z"/>
	<path class="st12" d="M213.8,165c0.1-0.1,0.2-0.2,0.3-0.3c0.1-0.2,0.2-0.3,0.3-0.6c0.1-0.2,0.1-0.4,0.1-0.5s0-0.3,0-0.5
		c0-0.2,0-0.4,0-0.5c0-0.1-0.1-0.3-0.1-0.4l0.1,0c0.1,0.2,0.2,0.4,0.2,0.6c0.1,0.2,0.1,0.4,0.1,0.6c0,0.2,0,0.5-0.1,0.6
		C214.4,164.4,214.2,164.7,213.8,165L213.8,165z"/>
	<path class="st12" d="M29.2,96.4C29.3,96.4,29.3,96.4,29.2,96.4l0.2,0.1c0,0,0.1,0,0.1,0.1c0,0,0.1,0,0.1,0c0.1,0,0.2-0.1,0.3-0.2
		c0.1-0.1,0.1-0.2,0.1-0.4c0-0.2,0-0.3-0.1-0.4c-0.1-0.1-0.2-0.1-0.4-0.1c0,0,0,0,0,0c0,0,0,0,0,0l0-0.1c0.3,0,0.5-0.1,0.6-0.2
		c0.1-0.1,0.2-0.2,0.2-0.3c0-0.1,0-0.1-0.1-0.2c0-0.1-0.1-0.1-0.2-0.1c-0.1,0-0.1,0-0.2,0.1c-0.1,0-0.1,0.1-0.2,0.2l-0.1,0
		c0.1-0.1,0.1-0.2,0.2-0.3c0.1-0.1,0.2-0.1,0.3-0.1c0.1,0,0.3,0,0.3,0.1s0.1,0.2,0.1,0.3c0,0.1-0.1,0.2-0.2,0.3
		c-0.1,0.1-0.2,0.1-0.4,0.2v0c0.1,0,0.1,0.1,0.2,0.1c0.1,0.1,0.1,0.2,0.1,0.4c0,0.2-0.1,0.4-0.3,0.6c-0.2,0.2-0.4,0.3-0.7,0.3
		c-0.1,0-0.2,0-0.2,0c-0.1,0-0.2-0.1-0.2-0.2c0,0,0-0.1,0-0.1C29.1,96.4,29.1,96.3,29.2,96.4C29.2,96.3,29.2,96.3,29.2,96.4z"/>
	<path class="st12" d="M31.7,94.5c-0.1,0.1-0.2,0.2-0.2,0.3c-0.1,0.2-0.2,0.4-0.3,0.6c-0.1,0.2-0.1,0.4-0.1,0.6c0,0.2,0,0.3,0,0.4
		c0,0.2,0,0.3,0,0.4c0,0.1,0.1,0.3,0.1,0.5l-0.1,0c-0.1-0.2-0.2-0.4-0.3-0.6c-0.1-0.2-0.1-0.4-0.1-0.6c0-0.3,0-0.5,0.1-0.7
		C31,95,31.3,94.7,31.7,94.5L31.7,94.5z"/>
	<path class="st12" d="M31.7,97.1C31.7,97.1,31.7,97,31.7,97.1c0.1,0,0.1,0,0.2,0c0,0,0,0,0.1,0l0,0c0,0,0,0,0,0s0,0,0,0
		c0.1,0,0.1-0.1,0.3-0.2s0.2-0.2,0.2-0.3c0-0.1,0-0.2-0.1-0.4c0-0.2-0.1-0.3-0.1-0.5c-0.1-0.2-0.1-0.3-0.1-0.4
		c0-0.1-0.1-0.1-0.2-0.1c0,0,0,0,0,0s0,0-0.1,0v-0.1l0.4-0.1l0,0c0,0,0.1,0.1,0.2,0.4c0.1,0.2,0.1,0.4,0.1,0.5l0.1,0.4
		c0.1-0.2,0.2-0.3,0.2-0.4c0.1-0.2,0.2-0.3,0.2-0.4c0,0,0,0,0-0.1c0,0,0,0,0,0l0,0c0,0,0,0-0.1,0c0,0,0-0.1,0-0.1c0,0,0-0.1,0-0.1
		s0.1,0,0.1,0c0.1,0,0.1,0,0.1,0c0,0,0.1,0.1,0.1,0.2c0,0.1-0.1,0.3-0.2,0.6c-0.1,0.2-0.2,0.4-0.3,0.6c-0.2,0.2-0.3,0.4-0.4,0.5
		c-0.2,0.2-0.3,0.3-0.4,0.3c0,0-0.1,0-0.1,0S31.7,97.2,31.7,97.1C31.7,97.1,31.7,97.1,31.7,97.1z"/>
	<path class="st12" d="M33.3,97.2c0.1-0.1,0.2-0.2,0.3-0.3c0.1-0.2,0.2-0.3,0.3-0.6c0.1-0.2,0.1-0.4,0.1-0.5s0-0.3,0-0.5
		c0-0.2,0-0.4,0-0.5c0-0.1-0.1-0.3-0.1-0.4l0.1,0c0.1,0.2,0.2,0.4,0.2,0.6c0.1,0.2,0.1,0.4,0.1,0.6c0,0.2,0,0.5-0.1,0.6
		C33.9,96.6,33.7,96.9,33.3,97.2L33.3,97.2z"/>
	<line class="st8" x1="130.2" y1="0" x2="130.2" y2="185.9"/>
	<line class="st8" x1="152.7" y1="185.9" x2="152.7" y2="0"/>
	<path class="st12" d="M333.1,177.2h0.3v1h1.2v-1h0.3v2.2h-0.3v-1h-1.2v1h-0.3V177.2z"/>
	<path class="st12" d="M335.3,178.6c0-0.5,0.3-0.9,0.7-0.9c0.3,0,0.7,0.2,0.7,0.8v0.1h-1.2c0,0.4,0.2,0.5,0.5,0.5
		c0.2,0,0.3-0.1,0.4-0.3l0.2,0.1c-0.1,0.2-0.3,0.4-0.7,0.4C335.5,179.4,335.3,179.1,335.3,178.6z M336.4,178.4
		c0-0.3-0.2-0.5-0.4-0.5c-0.3,0-0.5,0.2-0.5,0.5H336.4z"/>
	<path class="st12" d="M337,177.3c0-0.1,0.1-0.2,0.2-0.2c0.1,0,0.2,0.1,0.2,0.2s-0.1,0.2-0.2,0.2C337.1,177.5,337,177.4,337,177.3z
		 M337.1,177.7h0.3v1.6h-0.3V177.7z"/>
	<path class="st12" d="M337.8,179.7l0.2-0.1c0.1,0.1,0.2,0.2,0.5,0.2c0.3,0,0.5-0.1,0.5-0.4v-0.3h0c-0.1,0.1-0.2,0.3-0.5,0.3
		c-0.4,0-0.7-0.3-0.7-0.8c0-0.5,0.3-0.8,0.7-0.8c0.3,0,0.4,0.2,0.5,0.3h0v-0.3h0.2v1.7c0,0.4-0.3,0.6-0.7,0.6
		C338.1,180,337.9,179.9,337.8,179.7z M338.9,178.6c0-0.4-0.2-0.6-0.5-0.6c-0.3,0-0.5,0.3-0.5,0.6c0,0.3,0.2,0.6,0.5,0.6
		C338.7,179.1,338.9,178.9,338.9,178.6z"/>
	<path class="st12" d="M339.9,179.4h-0.3v-2.2h0.3v0.8h0c0.1-0.2,0.2-0.3,0.5-0.3c0.3,0,0.6,0.2,0.6,0.6v1h-0.3v-1
		c0-0.3-0.1-0.4-0.4-0.4c-0.2,0-0.4,0.2-0.4,0.4V179.4z"/>
	<path class="st12" d="M342.1,178h-0.4v1c0,0.2,0.1,0.2,0.2,0.2c0.1,0,0.1,0,0.1,0l0.1,0.2c0,0-0.1,0-0.2,0c-0.2,0-0.4-0.1-0.4-0.4
		v-1h-0.2v-0.2h0.2v-0.4h0.3v0.4h0.4V178z"/>
	<path class="st12" d="M343.2,178.6c0-0.5,0.3-0.9,0.7-0.9s0.7,0.3,0.7,0.9c0,0.5-0.3,0.8-0.7,0.8S343.2,179.1,343.2,178.6z
		 M344.5,178.6c0-0.3-0.2-0.6-0.5-0.6c-0.3,0-0.5,0.3-0.5,0.6s0.2,0.6,0.5,0.6C344.3,179.2,344.5,178.9,344.5,178.6z"/>
	<path class="st12" d="M345.8,178h-0.4v1.4h-0.3V178H345v-0.2h0.3v-0.2c0-0.3,0.2-0.4,0.5-0.4c0.1,0,0.2,0,0.2,0l-0.1,0.2
		c0,0-0.1,0-0.1,0c-0.2,0-0.2,0.1-0.2,0.2v0.2h0.4V178z"/>
	<path class="st12" d="M347,178c0-0.5,0.4-0.9,0.9-0.9c0.5,0,0.9,0.4,0.9,0.9c0,0.5-0.4,0.9-0.9,0.9C347.3,178.9,347,178.5,347,178z
		 M348.5,178c0-0.4-0.3-0.6-0.6-0.6c-0.4,0-0.7,0.3-0.7,0.6c0,0.4,0.3,0.6,0.7,0.6C348.2,178.7,348.5,178.4,348.5,178z M347.5,177.6
		h0.4c0.1,0,0.2,0.1,0.2,0.3c0,0.1-0.1,0.2-0.1,0.2l0.2,0.3H348l-0.1-0.3h-0.2v0.3h-0.2V177.6z M347.9,178c0,0,0.1,0,0.1-0.1
		c0-0.1-0.1-0.1-0.1-0.1h-0.2v0.3H347.9z"/>
	<path class="st12" d="M232.5,163.7c0.1-0.1,0.2-0.3,0.3-0.4c0.1-0.1,0.3-0.1,0.4-0.1c0.1,0,0.2,0,0.3,0.1c0.1,0.1,0.1,0.2,0.1,0.4
		c0,0.2-0.1,0.4-0.3,0.6c-0.2,0.2-0.4,0.3-0.6,0.3c-0.2,0-0.3-0.1-0.5-0.2c-0.1-0.1-0.2-0.3-0.2-0.5c0-0.4,0.1-0.7,0.4-1
		c0.3-0.3,0.6-0.5,1-0.5c0.1,0,0.3,0,0.4,0.1l-0.2,0.2c-0.1-0.1-0.3-0.1-0.4-0.1c-0.2,0-0.4,0.1-0.6,0.3c-0.1,0.1-0.2,0.3-0.2,0.4
		C232.6,163.3,232.5,163.5,232.5,163.7L232.5,163.7z M232.6,163.8c0.1,0.4,0.2,0.5,0.5,0.5c0.1,0,0.2,0,0.3-0.1
		c0.1-0.1,0.1-0.2,0.1-0.3c0-0.2,0-0.3-0.1-0.4c-0.1-0.1-0.2-0.2-0.3-0.2C232.8,163.4,232.7,163.5,232.6,163.8z"/>
	<line class="st8" x1="191.5" y1="185.9" x2="191.5" y2="0"/>
	<path class="st12" d="M192.1,164.4l0.1,0c0.1,0,0.1,0,0.2,0c0,0,0.1-0.1,0.1-0.1l0.5-1.6c0,0,0,0,0-0.1c0,0,0,0,0-0.1
		c0,0,0-0.1,0-0.1c0,0-0.1,0-0.1,0l-0.2,0v0l0,0c0,0,0.1,0,0.2,0c0.1,0,0.2,0,0.3-0.1l0.1,0l0,0l0,0c0,0,0,0,0,0c0,0,0,0,0,0l-0.5,2
		c0,0,0,0,0,0c0,0,0,0,0,0c0,0,0,0.1,0.1,0.1s0.1,0,0.2,0v0L192.1,164.4L192.1,164.4z"/>
	<path class="st12" d="M194.4,162.3h0.2l-0.8,2.2h-0.2L194.4,162.3z"/>
	<path class="st12" d="M193.3,166.3c-0.1,0.1-0.2,0.2-0.2,0.3c-0.1,0.2-0.2,0.4-0.3,0.6c-0.1,0.2-0.1,0.4-0.1,0.6c0,0.2,0,0.3,0,0.4
		c0,0.2,0,0.3,0,0.4c0,0.1,0.1,0.3,0.1,0.5l-0.1,0c-0.1-0.2-0.2-0.4-0.3-0.6c-0.1-0.2-0.1-0.4-0.1-0.6c0-0.3,0-0.5,0.1-0.7
		C192.6,166.8,192.9,166.5,193.3,166.3L193.3,166.3z"/>
	<path class="st12" d="M193.3,168.9C193.3,168.9,193.3,168.8,193.3,168.9c0.1,0,0.1,0,0.2,0c0,0,0,0,0.1,0l0,0c0,0,0,0,0,0s0,0,0,0
		c0.1,0,0.1-0.1,0.3-0.2s0.2-0.2,0.2-0.3c0-0.1,0-0.2-0.1-0.4c0-0.2-0.1-0.3-0.1-0.5c-0.1-0.2-0.1-0.3-0.1-0.4
		c0-0.1-0.1-0.1-0.2-0.1c0,0,0,0,0,0s0,0-0.1,0V167l0.4-0.1l0,0c0,0,0.1,0.1,0.2,0.4c0.1,0.2,0.1,0.4,0.1,0.5l0.1,0.4
		c0.1-0.2,0.2-0.3,0.2-0.4c0.1-0.2,0.2-0.3,0.2-0.4c0,0,0,0,0-0.1c0,0,0,0,0,0l0,0c0,0,0,0-0.1,0c0,0,0-0.1,0-0.1c0,0,0-0.1,0-0.1
		s0.1,0,0.1,0c0.1,0,0.1,0,0.1,0c0,0,0.1,0.1,0.1,0.2c0,0.1-0.1,0.3-0.2,0.6c-0.1,0.2-0.2,0.4-0.3,0.6c-0.2,0.2-0.3,0.4-0.4,0.5
		c-0.2,0.2-0.3,0.3-0.4,0.3c0,0-0.1,0-0.1,0S193.2,169,193.3,168.9C193.2,168.9,193.2,168.9,193.3,168.9z"/>
	<path class="st12" d="M194.8,169c0.1-0.1,0.2-0.2,0.3-0.3c0.1-0.2,0.2-0.3,0.3-0.6c0.1-0.2,0.1-0.4,0.1-0.5s0-0.3,0-0.5
		c0-0.2,0-0.4,0-0.5c0-0.1-0.1-0.3-0.1-0.4l0.1,0c0.1,0.2,0.2,0.4,0.2,0.6c0.1,0.2,0.1,0.4,0.1,0.6c0,0.2,0,0.5-0.1,0.6
		C195.5,168.4,195.3,168.7,194.8,169L194.8,169z"/>
	<path class="st12" d="M194.9,163.7c0.1-0.1,0.2-0.3,0.3-0.4c0.1-0.1,0.3-0.1,0.4-0.1c0.1,0,0.2,0,0.3,0.1c0.1,0.1,0.1,0.2,0.1,0.4
		c0,0.2-0.1,0.4-0.3,0.6c-0.2,0.2-0.4,0.3-0.6,0.3c-0.2,0-0.3-0.1-0.5-0.2c-0.1-0.1-0.2-0.3-0.2-0.5c0-0.4,0.1-0.7,0.4-1
		c0.3-0.3,0.6-0.5,1-0.5c0.1,0,0.3,0,0.4,0.1l-0.2,0.2c-0.1-0.1-0.3-0.1-0.4-0.1c-0.2,0-0.4,0.1-0.6,0.3c-0.1,0.1-0.2,0.3-0.2,0.4
		C195,163.3,194.9,163.5,194.9,163.7L194.9,163.7z M195,163.8c0.1,0.4,0.2,0.5,0.5,0.5c0.1,0,0.2,0,0.3-0.1c0.1-0.1,0.1-0.2,0.1-0.3
		c0-0.2,0-0.3-0.1-0.4c-0.1-0.1-0.2-0.2-0.3-0.2C195.2,163.4,195.1,163.5,195,163.8z"/>
	<line class="st7" x1="44.6" y1="185.9" x2="44.6" y2="0"/>
	<path class="st13" d="M152.7,27.4V0h11.5v27.8c0,4.5,2.3,7.6,8,7.6c5.3,0,7.9-3.2,7.9-7.8V0h11.5v27.4c0,10.7-6.4,17.2-19.4,17.2
		C159.2,44.6,152.7,38.3,152.7,27.4z"/>
	<path class="st13" d="M191.5,158.5v27.4H180v-27.8c0-4.5-2.3-7.6-8-7.6c-5.3,0-7.9,3.2-7.9,7.8v27.6h-11.5v-27.4
		c0-10.7,6.4-17.2,19.4-17.2C185,141.3,191.5,147.6,191.5,158.5z"/>
	<path class="st13" d="M27.4,113.6H0v-11.5h27.8c4.5,0,7.6-2.3,7.6-8c0-5.3-3.2-7.9-7.8-7.9H0V74.8h27.4c10.7,0,17.2,6.4,17.2,19.4
		C44.6,107.1,38.3,113.6,27.4,113.6z"/>
	<path class="st13" d="M347.9,74.8h27.4v11.5h-27.8c-4.5,0-7.6,2.3-7.6,8c0,5.3,3.2,7.9,7.8,7.9h27.6v11.5h-27.4
		c-10.7,0-17.2-6.4-17.2-19.4C330.7,81.3,337.1,74.8,347.9,74.8z"/>
	<line class="st14" x1="2.3" y1="44.6" x2="375.6" y2="44.6"/>
	<line class="st15" x1="0" y1="141.3" x2="375.4" y2="141.3"/>
	<g class="st4">
		<path class="st9" d="M334.5,182h-1.4v-0.2h1.4V182z M334.5,182.7h-1.4v-0.2h1.4V182.7z"/>
		<path class="st9" d="M337.1,183v0.3h-1.4c0-0.1,0-0.1,0-0.2c0-0.1,0.1-0.2,0.2-0.3c0.1-0.1,0.2-0.2,0.4-0.3
			c0.2-0.2,0.4-0.3,0.5-0.5c0.1-0.1,0.1-0.2,0.1-0.3c0-0.1,0-0.2-0.1-0.3c-0.1-0.1-0.2-0.1-0.3-0.1c-0.1,0-0.2,0-0.3,0.1
			c-0.1,0.1-0.1,0.2-0.1,0.3l-0.3,0c0-0.2,0.1-0.4,0.2-0.5c0.1-0.1,0.3-0.2,0.5-0.2c0.2,0,0.4,0.1,0.5,0.2c0.1,0.1,0.2,0.3,0.2,0.4
			c0,0.1,0,0.2-0.1,0.3s-0.1,0.2-0.2,0.3c-0.1,0.1-0.2,0.2-0.4,0.4c-0.2,0.1-0.3,0.2-0.3,0.3c0,0-0.1,0.1-0.1,0.1H337.1z"/>
		<path class="st9" d="M337.3,182.2c0-0.3,0-0.5,0.1-0.6c0.1-0.2,0.1-0.3,0.2-0.4s0.2-0.1,0.4-0.1c0.1,0,0.2,0,0.3,0.1
			c0.1,0,0.2,0.1,0.2,0.2c0.1,0.1,0.1,0.2,0.1,0.3c0,0.1,0,0.3,0,0.5c0,0.3,0,0.5-0.1,0.6c-0.1,0.2-0.1,0.3-0.2,0.4
			c-0.1,0.1-0.2,0.1-0.4,0.1c-0.2,0-0.4-0.1-0.5-0.2C337.4,182.9,337.3,182.6,337.3,182.2z M337.6,182.2c0,0.4,0,0.6,0.1,0.7
			c0.1,0.1,0.2,0.2,0.3,0.2s0.2-0.1,0.3-0.2s0.1-0.4,0.1-0.7c0-0.4,0-0.6-0.1-0.7s-0.2-0.2-0.3-0.2c-0.1,0-0.2,0.1-0.3,0.2
			C337.7,181.6,337.6,181.9,337.6,182.2z"/>
		<path class="st9" d="M339,182.2c0-0.3,0-0.5,0.1-0.6c0.1-0.2,0.1-0.3,0.2-0.4s0.2-0.1,0.4-0.1c0.1,0,0.2,0,0.3,0.1
			c0.1,0,0.2,0.1,0.2,0.2c0.1,0.1,0.1,0.2,0.1,0.3c0,0.1,0,0.3,0,0.5c0,0.3,0,0.5-0.1,0.6c-0.1,0.2-0.1,0.3-0.2,0.4
			c-0.1,0.1-0.2,0.1-0.4,0.1c-0.2,0-0.4-0.1-0.5-0.2C339.1,182.9,339,182.6,339,182.2z M339.3,182.2c0,0.4,0,0.6,0.1,0.7
			c0.1,0.1,0.2,0.2,0.3,0.2s0.2-0.1,0.3-0.2s0.1-0.4,0.1-0.7c0-0.4,0-0.6-0.1-0.7s-0.2-0.2-0.3-0.2c-0.1,0-0.2,0.1-0.3,0.2
			C339.4,181.6,339.3,181.9,339.3,182.2z"/>
		<path class="st9" d="M340.8,181.7c0-0.2,0-0.3,0.1-0.4c0.1-0.1,0.2-0.2,0.3-0.2c0.1,0,0.3,0,0.3,0.1c0.1,0.1,0.1,0.2,0.1,0.4
			c0,0.2,0,0.3-0.1,0.4c-0.1,0.1-0.2,0.1-0.3,0.1c-0.1,0-0.2,0-0.3-0.1C340.8,182,340.8,181.9,340.8,181.7z M341.3,181.3
			c-0.1,0-0.1,0-0.2,0.1c0,0.1-0.1,0.2-0.1,0.3c0,0.1,0,0.2,0.1,0.3c0,0.1,0.1,0.1,0.2,0.1c0.1,0,0.1,0,0.2-0.1
			c0-0.1,0.1-0.2,0.1-0.3c0-0.1,0-0.2-0.1-0.3C341.4,181.3,341.3,181.3,341.3,181.3z M341.3,183.4l1.2-2.3h0.2l-1.2,2.3H341.3z
			 M342.2,182.8c0-0.2,0-0.3,0.1-0.4c0.1-0.1,0.2-0.2,0.3-0.2c0.1,0,0.3,0,0.3,0.1c0.1,0.1,0.1,0.2,0.1,0.4c0,0.2,0,0.3-0.1,0.4
			c-0.1,0.1-0.2,0.1-0.3,0.1c-0.1,0-0.2,0-0.3-0.1C342.2,183.1,342.2,183,342.2,182.8z M342.7,182.4c-0.1,0-0.1,0-0.2,0.1
			s-0.1,0.2-0.1,0.3c0,0.1,0,0.2,0.1,0.3s0.1,0.1,0.2,0.1c0.1,0,0.1,0,0.2-0.1c0-0.1,0.1-0.2,0.1-0.3c0-0.1,0-0.2-0.1-0.3
			C342.8,182.4,342.7,182.4,342.7,182.4z"/>
		<path class="st9" d="M344.4,183.3v-2.1h0.3v0.8c0.1-0.1,0.3-0.2,0.5-0.2c0.1,0,0.2,0,0.3,0.1c0.1,0,0.1,0.1,0.2,0.2
			c0,0.1,0.1,0.2,0.1,0.3v1h-0.3v-1c0-0.1,0-0.2-0.1-0.3c-0.1-0.1-0.1-0.1-0.2-0.1c-0.1,0-0.2,0-0.2,0.1c-0.1,0-0.1,0.1-0.2,0.2
			c0,0.1,0,0.2,0,0.3v0.9H344.4z"/>
		<path class="st9" d="M347.2,182.8l0.3,0c0,0.2-0.1,0.3-0.2,0.4s-0.3,0.1-0.5,0.1c-0.2,0-0.4-0.1-0.5-0.2c-0.1-0.1-0.2-0.3-0.2-0.6
			c0-0.3,0.1-0.5,0.2-0.6s0.3-0.2,0.5-0.2c0.2,0,0.4,0.1,0.5,0.2c0.1,0.1,0.2,0.3,0.2,0.6c0,0,0,0,0,0.1h-1.2c0,0.2,0.1,0.3,0.1,0.4
			c0.1,0.1,0.2,0.1,0.3,0.1c0.1,0,0.2,0,0.3-0.1S347.1,182.9,347.2,182.8z M346.3,182.4h0.9c0-0.1,0-0.2-0.1-0.3
			c-0.1-0.1-0.2-0.2-0.3-0.2c-0.1,0-0.2,0-0.3,0.1S346.3,182.2,346.3,182.4z"/>
		<path class="st9" d="M347.8,181.4v-0.3h0.3v0.3H347.8z M347.8,183.3v-1.6h0.3v1.6H347.8z"/>
		<path class="st9" d="M348.4,183.4l0.3,0c0,0.1,0,0.1,0.1,0.2c0.1,0,0.2,0.1,0.3,0.1c0.1,0,0.2,0,0.3-0.1s0.1-0.1,0.1-0.2
			c0-0.1,0-0.2,0-0.3c-0.1,0.1-0.3,0.2-0.4,0.2c-0.2,0-0.4-0.1-0.5-0.2s-0.2-0.3-0.2-0.6c0-0.1,0-0.3,0.1-0.4
			c0.1-0.1,0.1-0.2,0.2-0.3s0.2-0.1,0.4-0.1c0.2,0,0.3,0.1,0.5,0.2v-0.2h0.2v1.3c0,0.2,0,0.4-0.1,0.5c-0.1,0.1-0.1,0.2-0.2,0.2
			c-0.1,0.1-0.2,0.1-0.4,0.1c-0.2,0-0.3,0-0.5-0.1C348.5,183.7,348.4,183.6,348.4,183.4z M348.6,182.5c0,0.2,0,0.4,0.1,0.4
			c0.1,0.1,0.2,0.1,0.3,0.1c0.1,0,0.2,0,0.3-0.1c0.1-0.1,0.1-0.2,0.1-0.4c0-0.2,0-0.3-0.1-0.4s-0.2-0.1-0.3-0.1
			c-0.1,0-0.2,0-0.3,0.1C348.7,182.2,348.6,182.3,348.6,182.5z"/>
		<path class="st9" d="M350.1,183.3v-2.1h0.3v0.8c0.1-0.1,0.3-0.2,0.5-0.2c0.1,0,0.2,0,0.3,0.1c0.1,0,0.1,0.1,0.2,0.2
			c0,0.1,0.1,0.2,0.1,0.3v1h-0.3v-1c0-0.1,0-0.2-0.1-0.3c-0.1-0.1-0.1-0.1-0.2-0.1c-0.1,0-0.2,0-0.2,0.1c-0.1,0-0.1,0.1-0.2,0.2
			c0,0.1,0,0.2,0,0.3v0.9H350.1z"/>
		<path class="st9" d="M352.4,183.1l0,0.2c-0.1,0-0.1,0-0.2,0c-0.1,0-0.2,0-0.2,0c-0.1,0-0.1-0.1-0.1-0.1c0,0,0-0.2,0-0.3v-0.9h-0.2
			v-0.2h0.2v-0.4l0.3-0.2v0.5h0.3v0.2h-0.3v0.9c0,0.1,0,0.1,0,0.1s0,0,0,0.1s0.1,0,0.1,0C352.3,183.1,352.4,183.1,352.4,183.1z"/>
		<path class="st9" d="M353.4,182.5c0-0.3,0.1-0.5,0.2-0.6c0.1-0.1,0.3-0.2,0.5-0.2c0.2,0,0.4,0.1,0.5,0.2c0.1,0.1,0.2,0.3,0.2,0.6
			c0,0.2,0,0.4-0.1,0.5c-0.1,0.1-0.2,0.2-0.3,0.3c-0.1,0.1-0.2,0.1-0.4,0.1c-0.2,0-0.4-0.1-0.5-0.2
			C353.5,183,353.4,182.8,353.4,182.5z M353.7,182.5c0,0.2,0,0.3,0.1,0.4c0.1,0.1,0.2,0.1,0.3,0.1c0.1,0,0.2,0,0.3-0.1
			c0.1-0.1,0.1-0.3,0.1-0.5c0-0.2,0-0.3-0.1-0.4c-0.1-0.1-0.2-0.1-0.3-0.1c-0.1,0-0.2,0-0.3,0.1
			C353.8,182.2,353.7,182.3,353.7,182.5z"/>
		<path class="st9" d="M355.3,183.3v-1.4h-0.2v-0.2h0.2v-0.2c0-0.1,0-0.2,0-0.2c0-0.1,0.1-0.1,0.1-0.2c0.1,0,0.2-0.1,0.3-0.1
			c0.1,0,0.2,0,0.2,0l0,0.2c-0.1,0-0.1,0-0.2,0c-0.1,0-0.1,0-0.2,0.1c0,0-0.1,0.1-0.1,0.2v0.1h0.3v0.2h-0.3v1.4H355.3z"/>
		<path class="st9" d="M357.5,183.1l0,0.2c-0.1,0-0.1,0-0.2,0c-0.1,0-0.2,0-0.2,0c-0.1,0-0.1-0.1-0.1-0.1c0,0,0-0.2,0-0.3v-0.9h-0.2
			v-0.2h0.2v-0.4l0.3-0.2v0.5h0.3v0.2h-0.3v0.9c0,0.1,0,0.1,0,0.1s0,0,0,0.1s0.1,0,0.1,0C357.4,183.1,357.5,183.1,357.5,183.1z"/>
		<path class="st9" d="M357.8,183.3v-2.1h0.3v0.8c0.1-0.1,0.3-0.2,0.5-0.2c0.1,0,0.2,0,0.3,0.1c0.1,0,0.1,0.1,0.2,0.2
			c0,0.1,0.1,0.2,0.1,0.3v1h-0.3v-1c0-0.1,0-0.2-0.1-0.3c-0.1-0.1-0.1-0.1-0.2-0.1c-0.1,0-0.2,0-0.2,0.1c-0.1,0-0.1,0.1-0.2,0.2
			c0,0.1,0,0.2,0,0.3v0.9H357.8z"/>
		<path class="st9" d="M360.6,182.8l0.3,0c0,0.2-0.1,0.3-0.2,0.4s-0.3,0.1-0.5,0.1c-0.2,0-0.4-0.1-0.5-0.2c-0.1-0.1-0.2-0.3-0.2-0.6
			c0-0.3,0.1-0.5,0.2-0.6s0.3-0.2,0.5-0.2c0.2,0,0.4,0.1,0.5,0.2c0.1,0.1,0.2,0.3,0.2,0.6c0,0,0,0,0,0.1h-1.2c0,0.2,0.1,0.3,0.1,0.4
			c0.1,0.1,0.2,0.1,0.3,0.1c0.1,0,0.2,0,0.3-0.1S360.5,182.9,360.6,182.8z M359.7,182.4h0.9c0-0.1,0-0.2-0.1-0.3
			c-0.1-0.1-0.2-0.2-0.3-0.2c-0.1,0-0.2,0-0.3,0.1S359.7,182.2,359.7,182.4z"/>
		<path class="st9" d="M362,181.4v-0.3h0.3v0.3H362z M362,183.3v-1.6h0.3v1.6H362z"/>
		<path class="st9" d="M362.7,181.4v-0.3h0.3v0.2c0,0.1,0,0.2,0,0.3c0,0.1-0.1,0.1-0.2,0.2l-0.1-0.1c0.1,0,0.1-0.1,0.1-0.1
			c0,0,0-0.1,0-0.2H362.7z"/>
		<path class="st9" d="M363.2,182.8l0.3,0c0,0.1,0.1,0.2,0.1,0.2c0.1,0.1,0.2,0.1,0.3,0.1c0.1,0,0.2,0,0.3-0.1
			c0.1,0,0.1-0.1,0.1-0.2c0-0.1,0-0.1-0.1-0.1c0,0-0.1-0.1-0.3-0.1c-0.2,0-0.3-0.1-0.4-0.1c-0.1,0-0.1-0.1-0.2-0.1
			c0-0.1-0.1-0.1-0.1-0.2c0-0.1,0-0.1,0-0.2c0-0.1,0.1-0.1,0.1-0.1c0,0,0.1-0.1,0.2-0.1c0.1,0,0.1,0,0.2,0c0.1,0,0.2,0,0.3,0.1
			s0.2,0.1,0.2,0.1c0,0.1,0.1,0.1,0.1,0.2l-0.3,0c0-0.1,0-0.1-0.1-0.2c-0.1,0-0.1-0.1-0.2-0.1c-0.1,0-0.2,0-0.3,0.1
			c-0.1,0-0.1,0.1-0.1,0.1c0,0,0,0.1,0,0.1c0,0,0.1,0.1,0.1,0.1c0,0,0.1,0,0.2,0.1c0.2,0,0.3,0.1,0.4,0.1c0.1,0,0.1,0.1,0.2,0.1
			s0.1,0.1,0.1,0.2c0,0.1,0,0.2-0.1,0.2c-0.1,0.1-0.1,0.1-0.2,0.2c-0.1,0-0.2,0.1-0.3,0.1c-0.2,0-0.4,0-0.5-0.1
			C363.3,183.1,363.2,183,363.2,182.8z"/>
		<path class="st9" d="M366.7,183.3v-0.2c-0.1,0.2-0.2,0.2-0.4,0.2c-0.1,0-0.2,0-0.3-0.1c-0.1-0.1-0.2-0.2-0.2-0.3
			c-0.1-0.1-0.1-0.3-0.1-0.4c0-0.2,0-0.3,0.1-0.4c0.1-0.1,0.1-0.2,0.2-0.3c0.1-0.1,0.2-0.1,0.4-0.1c0.1,0,0.2,0,0.3,0.1
			c0.1,0,0.1,0.1,0.2,0.2v-0.8h0.3v2.1H366.7z M365.9,182.5c0,0.2,0,0.3,0.1,0.4c0.1,0.1,0.2,0.1,0.3,0.1c0.1,0,0.2,0,0.3-0.1
			c0.1-0.1,0.1-0.2,0.1-0.4c0-0.2,0-0.4-0.1-0.5c-0.1-0.1-0.2-0.2-0.3-0.2c-0.1,0-0.2,0-0.3,0.1S365.9,182.3,365.9,182.5z"/>
		<path class="st9" d="M367.3,182.5c0-0.3,0.1-0.5,0.2-0.6c0.1-0.1,0.3-0.2,0.5-0.2c0.2,0,0.4,0.1,0.5,0.2c0.1,0.1,0.2,0.3,0.2,0.6
			c0,0.2,0,0.4-0.1,0.5c-0.1,0.1-0.2,0.2-0.3,0.3c-0.1,0.1-0.2,0.1-0.4,0.1c-0.2,0-0.4-0.1-0.5-0.2
			C367.4,183,367.3,182.8,367.3,182.5z M367.6,182.5c0,0.2,0,0.3,0.1,0.4c0.1,0.1,0.2,0.1,0.3,0.1c0.1,0,0.2,0,0.3-0.1
			c0.1-0.1,0.1-0.3,0.1-0.5c0-0.2,0-0.3-0.1-0.4c-0.1-0.1-0.2-0.1-0.3-0.1c-0.1,0-0.2,0-0.3,0.1
			C367.6,182.2,367.6,182.3,367.6,182.5z"/>
		<path class="st9" d="M369.7,183.1l0,0.2c-0.1,0-0.1,0-0.2,0c-0.1,0-0.2,0-0.2,0c-0.1,0-0.1-0.1-0.1-0.1c0,0,0-0.2,0-0.3v-0.9h-0.2
			v-0.2h0.2v-0.4l0.3-0.2v0.5h0.3v0.2h-0.3v0.9c0,0.1,0,0.1,0,0.1s0,0,0,0.1s0.1,0,0.1,0C369.6,183.1,369.6,183.1,369.7,183.1z"/>
	</g>
</g>
</svg>
